<svg xmlns="http://www.w3.org/2000/svg" xmlns:xlink="http://www.w3.org/1999/xlink" width="345" height="165" viewBox="0 0 345 165">
  <defs>
    <linearGradient id="linear-gradient" x1="0.5" x2="0.5" y2="1" gradientUnits="objectBoundingBox">
      <stop offset="0" stop-color="#6e4ae3"/>
      <stop offset="0.172" stop-color="#8356d9"/>
      <stop offset="0.394" stop-color="#9763d1"/>
      <stop offset="0.581" stop-color="#b87ec2"/>
      <stop offset="0.818" stop-color="#be85bf"/>
      <stop offset="1" stop-color="#dda4de"/>
    </linearGradient>
    <clipPath id="clip-path">
      <rect id="사각형_85" data-name="사각형 85" width="345" height="165" rx="15" transform="translate(420 -185)" fill="#fff"/>
    </clipPath>
    <clipPath id="clip-path-2">
      <rect id="사각형_84" data-name="사각형 84" width="345" height="165" fill="url(#linear-gradient)"/>
    </clipPath>
    <linearGradient id="linear-gradient-2" x1="1" y1="1" x2="0.011" y2="0" xlink:href="#linear-gradient"/>
    <linearGradient id="linear-gradient-3" x1="0.367" y1="0.969" x2="0.125" y2="0.111" xlink:href="#linear-gradient"/>
    <filter id="패스_82" x="-232.081" y="-213.912" width="827.454" height="535.875" filterUnits="userSpaceOnUse">
      <feOffset dy="3" input="SourceAlpha"/>
      <feGaussianBlur stdDeviation="45" result="blur"/>
      <feFlood flood-color="#fff" flood-opacity="0.102"/>
      <feComposite operator="in" in2="blur"/>
      <feComposite in="SourceGraphic"/>
    </filter>
    <linearGradient id="linear-gradient-4" x1="0.956" x2="0.017" y2="0.611" xlink:href="#linear-gradient"/>
    <filter id="패스_83" x="-228.959" y="-206.164" width="736.974" height="529.693" filterUnits="userSpaceOnUse">
      <feOffset dy="3" input="SourceAlpha"/>
      <feGaussianBlur stdDeviation="45" result="blur-2"/>
      <feFlood flood-color="#fff" flood-opacity="0.149"/>
      <feComposite operator="in" in2="blur-2"/>
      <feComposite in="SourceGraphic"/>
    </filter>
    <filter id="패스_84" x="-216.771" y="-183.921" width="630.321" height="448.093" filterUnits="userSpaceOnUse">
      <feOffset dy="3" input="SourceAlpha"/>
      <feGaussianBlur stdDeviation="45" result="blur-3"/>
      <feFlood flood-color="#fff" flood-opacity="0.102"/>
      <feComposite operator="in" in2="blur-3"/>
      <feComposite in="SourceGraphic"/>
    </filter>
    <filter id="패스_85" x="-135.543" y="-125.097" width="503.804" height="299.036" filterUnits="userSpaceOnUse">
      <feOffset dy="3" input="SourceAlpha"/>
      <feGaussianBlur stdDeviation="40" result="blur-4"/>
      <feFlood flood-color="#fff" flood-opacity="0.102"/>
      <feComposite operator="in" in2="blur-4"/>
      <feComposite in="SourceGraphic"/>
    </filter>
  </defs>
  <g id="마스크_그룹_20" data-name="마스크 그룹 20" transform="translate(-420 185)" clip-path="url(#clip-path)">
    <g id="그룹_148" data-name="그룹 148">
      <g id="마스크_그룹_19" data-name="마스크 그룹 19" transform="translate(420 -185)" clip-path="url(#clip-path-2)">
        <g id="그룹_147" data-name="그룹 147" transform="translate(-97.096 -81.874)">
          <g id="그룹_146" data-name="그룹 146" transform="translate(0 0)">
            <rect id="사각형_83" data-name="사각형 83" width="345" height="165" transform="translate(97.096 81.874)" fill="url(#linear-gradient-2)"/>
            <g transform="matrix(1, 0, 0, 1, 97.1, 81.87)" filter="url(#패스_82)">
              <path id="패스_82-2" data-name="패스 82" d="M540.427,91.216,127.466.011S-129.5,185.368,86.311,222.993,542.847,95.79,542.847,95.79" transform="translate(-97.1 -44.06) rotate(-4)" opacity="0.15" fill="url(#linear-gradient-3)"/>
            </g>
            <g transform="matrix(1, 0, 0, 1, 97.1, 81.87)" filter="url(#패스_83)">
              <path id="패스_83-2" data-name="패스 83" d="M438.808,72.663S170.44-20.275,82.712,4.1-46.331,139.509,78.625,178.939,441.426,77.3,441.426,77.3" transform="matrix(0.98, -0.17, 0.17, 0.98, -93.98, 2.46)" opacity="0.15" fill="url(#linear-gradient-4)"/>
            </g>
            <g transform="matrix(1, 0, 0, 1, 97.1, 81.87)" filter="url(#패스_84)">
              <path id="패스_84-2" data-name="패스 84" d="M342.7,48.024S133.539-12.912,64.948,2.527s-101.293,87-3.89,112.886S344.724,51.024,344.724,51.024" transform="matrix(0.98, -0.17, 0.17, 0.98, -81.79, 7.92)" opacity="0.25" fill="url(#linear-gradient-4)"/>
            </g>
            <g transform="matrix(1, 0, 0, 1, 97.1, 81.87)" filter="url(#패스_85)">
              <path id="패스_85-2" data-name="패스 85" d="M263.8,0H0V57.919S52.332,72.022,263.8,0" transform="translate(-15.54 -8.1)" opacity="0.32" fill="url(#linear-gradient-4)"/>
            </g>
          </g>
        </g>
      </g>
    </g>
  </g>
</svg>
