<svg xmlns="http://www.w3.org/2000/svg" width="42.15" height="34.855" viewBox="0 0 42.15 34.855">
    <g data-name="그룹 4">
        <g data-name="그룹 2823">
            <path data-name="사각형 59" transform="translate(0 27.282)" style="fill:red" d="M0 0h42.113v.699H0z"/>
        </g>
        <g data-name="그룹 2824">
            <path data-name="패스 3144" d="M1112.662 948.7h1.067v.429a3.593 3.593 0 0 1 1.007-.391 5.3 5.3 0 0 1 1.174-.12 2.8 2.8 0 0 1 1.922.488 1.026 1.026 0 0 1 .274.77v2.107h-1.122v-2.1a.656.656 0 0 0-.185-.486 1.47 1.47 0 0 0-1.086-.316 4.007 4.007 0 0 0-.666.046 2.317 2.317 0 0 0-.811.27.87.87 0 0 0-.369.34 1.2 1.2 0 0 0-.083.5v1.744h-1.122z" style="fill:#fff" transform="translate(-1112.506 -917.237)"/>
        </g>
        <g data-name="그룹 2825">
            <path data-name="패스 3145" d="M1120.262 948.7v2.208a.565.565 0 0 0 .16.417 1.629 1.629 0 0 0 1.135.3 2.025 2.025 0 0 0 1.619-.526 1.166 1.166 0 0 0 .23-.763V948.7h1.122v3.283h-1.066l.014-.441a2.132 2.132 0 0 1-.541.3 4.4 4.4 0 0 1-1.563.249 2.99 2.99 0 0 1-1.95-.467.89.89 0 0 1-.282-.681V948.7z" style="fill:#fff" transform="translate(-1112.506 -917.237)"/>
        </g>
        <g data-name="그룹 2826">
            <path data-name="패스 3146" d="M1125.617 948.7h1.1v.559a1.934 1.934 0 0 1 .632-.4 2.7 2.7 0 0 1 1.167-.24c.02 0 .055 0 .1.007l.257.021v.573a.773.773 0 0 0-.189-.026h-.185a2.567 2.567 0 0 0-1.3.273.76.76 0 0 0-.455.623v1.894h-1.123z" style="fill:#fff" transform="translate(-1112.506 -917.237)"/>
        </g>
        <g data-name="그룹 2827">
            <path data-name="패스 3147" d="M1129.556 948.7h1.12v3.283h-1.12z" style="fill:#fff" transform="translate(-1112.506 -917.237)"/>
        </g>
        <g data-name="그룹 2828">
            <path data-name="패스 3148" d="M1132 947.47h1.1v1.606a3.049 3.049 0 0 1 .881-.339 4.875 4.875 0 0 1 1.107-.119 4.225 4.225 0 0 1 2.023.421 1.347 1.347 0 0 1 .774 1.244 1.52 1.52 0 0 1-.763 1.3 3.738 3.738 0 0 1-2.107.513 4.027 4.027 0 0 1-1.278-.176 2.9 2.9 0 0 1-.665-.329v.4H1132zm4.281 3.8a1.161 1.161 0 0 0 .453-.957 1.066 1.066 0 0 0-.453-.876 2.13 2.13 0 0 0-1.322-.349 2.958 2.958 0 0 0-1.342.288.973.973 0 0 0-.577.937 1.2 1.2 0 0 0 .234.768 2.033 2.033 0 0 0 1.655.551 2.138 2.138 0 0 0 1.349-.367z" style="fill:#fff" transform="translate(-1112.506 -917.237)"/>
        </g>
        <g data-name="그룹 2829">
            <path data-name="패스 3149" d="M1143.745 949.041a1.339 1.339 0 0 1 .9 1.237 1.514 1.514 0 0 1-.789 1.3 5.8 5.8 0 0 1-4.636.063 1.372 1.372 0 0 1-.812-1.224 1.47 1.47 0 0 1 .855-1.311 4.654 4.654 0 0 1 2.3-.487 5.1 5.1 0 0 1 2.182.422zm-.671 2.166a1.278 1.278 0 0 0 .417-.921.987.987 0 0 0-.307-.754 3.208 3.208 0 0 0-3.159-.065 1.166 1.166 0 0 0-.472.933 1.049 1.049 0 0 0 .472.875 2.519 2.519 0 0 0 1.5.352 2.19 2.19 0 0 0 1.549-.42z" style="fill:#fff" transform="translate(-1112.506 -917.237)"/>
        </g>
        <g data-name="그룹 2830">
            <path data-name="패스 3150" d="M1145.656 948.7h1.094v.421a4.083 4.083 0 0 1 .722-.326 4.151 4.151 0 0 1 1.262-.177 3.839 3.839 0 0 1 1.284.177 1.624 1.624 0 0 1 .493.3 2.979 2.979 0 0 1 .893-.361 4.939 4.939 0 0 1 1.138-.12 2.669 2.669 0 0 1 1.847.481.924.924 0 0 1 .267.693v2.191h-1.175v-2.309a.463.463 0 0 0-.338-.463 2.355 2.355 0 0 0-.82-.124 2.759 2.759 0 0 0-1.149.22.758.758 0 0 0-.484.738v1.942h-1.121v-2.168a.662.662 0 0 0-.16-.493 1.436 1.436 0 0 0-.958-.239 2.7 2.7 0 0 0-1.153.244.9.9 0 0 0-.519.892v1.764h-1.123z" style="fill:#fff" transform="translate(-1112.506 -917.237)"/>
        </g>
        <g data-name="그룹 2833">
            <g data-name="그룹 2832">
                <path data-name="패스 3151" d="M1129.556 947.455h1.12v.438h-1.12z" style="fill:red" transform="translate(-1112.506 -917.237)"/>
            </g>
        </g>
        <g data-name="그룹 2840">
            <g data-name="그룹 2835">
                <path data-name="패스 3152" d="m1151.031 927.858-4.943 5.109-4.953-5.109h-3.552v6.127c-.058-.033-.115-.071-.177-.106a11.165 11.165 0 0 0-5.4-1.218 11.547 11.547 0 0 0-4.97 1 2.948 2.948 0 0 0-1.734-1.381 2.109 2.109 0 0 0 1.425-1.85 2.074 2.074 0 0 0-1.105-1.821 5.668 5.668 0 0 0-3.03-.692h-9.963v9.034h9.85a14.21 14.21 0 0 0 1.608-.085 3.528 3.528 0 0 0-.055.6q0 2.234 2.54 3.615a11.258 11.258 0 0 0 5.434 1.189 11.145 11.145 0 0 0 5.415-1.189q2.533-1.395 2.541-3.6l.007.01-.026-1.084v-6.946l.059-.057 6.071 6.214 6.09-6.155.045 7.434h2.363v-9.034zM1115 929.5h7.715q1.713 0 1.712 1.025a.878.878 0 0 1-.482.779 2.541 2.541 0 0 1-1.31.29H1115zm9.219 5.58a4.3 4.3 0 0 1-1.741.283H1115v-2.183h7.674q2.164 0 2.167 1.144c-.001.317-.208.57-.623.758zm11.781 4.709a7.8 7.8 0 0 1-4 .891 7.9 7.9 0 0 1-4.025-.891 2.512 2.512 0 0 1 .029-4.629 9.172 9.172 0 0 1 7.964-.007 2.524 2.524 0 0 1 .028 4.636z" style="fill:#858585" transform="translate(-1112.506 -917.237)"/>
            </g>
            <g data-name="그룹 2839">
                <g data-name="그룹 2837">
                    <path data-name="사각형 60" transform="translate(39.667 .016)" style="fill:red" d="M0 0h2.388v8.976H0z"/>
                </g>
                <g data-name="그룹 2838">
                    <path data-name="패스 3154" d="M1151.224 920.084a2.407 2.407 0 0 0-1.113-2.073 5.17 5.17 0 0 0-3-.774h-9.546v8.976h.005v1.7q0 1.983-4.555 1.985-4.575 0-4.576-1.985v-10.664h-2.327v8.677l-10.616-8.677h-2.861v10.571h2.3v-8.684l10.07 8.229a7.539 7.539 0 0 1 1.29 1.7l.005-.02a3.263 3.263 0 0 0 1.7 1.528 14.394 14.394 0 0 0 10.009 0q1.863-.9 1.863-2.313v-5.35h5.849l3.1 3.3h2.655l-3.19-3.4q2.938-.492 2.938-2.726zm-11.354 1.247v-2.517h6.763c1.484 0 2.229.432 2.229 1.3q0 1.221-2.1 1.221z" style="fill:red" transform="translate(-1112.506 -917.237)"/>
                </g>
            </g>
        </g>
    </g>
</svg>
